<svg id="Layer_1" enable-background="new 0 0 512.014 512.014" height="512" viewBox="0 0 512.014 512.014" width="512" xmlns="http://www.w3.org/2000/svg"><g><g><path d="m404.47 3.761c-52.552-14.082-106.584 12.547-128.49 60.464-20.734-8.106-42.437-12.21-64.604-12.21-.457 0-.913 0-1.372 0-47.904 0-93.493 19.145-128.434 53.953-35.315 35.181-55.57 83.325-55.57 132.088 0 52.07 26.942 118.043 73.918 181.002 33.404 44.771 82.306 92.957 110.733 92.957s77.328-48.186 110.733-92.957c46.976-62.959 73.918-128.932 73.918-181.002 0-6.512-.365-13.064-1.071-19.575 41.119-6.976 76.537-37.147 88.02-79.998 15.7-58.588-19.193-119.024-77.781-134.722zm-99.114 403.336c-43.223 57.929-82.063 84.917-94.704 84.917s-51.482-26.988-94.704-84.917c-44.452-59.577-69.947-121.19-69.947-169.041 0-43.484 18.109-86.464 49.685-117.92 31.167-31.047 71.742-48.122 114.397-48.122h1.217c19.956 0 39.445 3.737 58.054 11.103-1.665 6.597-2.713 13.298-3.138 20.022-17.561-7.298-36.489-11.123-55.564-11.123-22.031 0-43.191 4.83-62.894 14.356-4.973 2.404-7.055 8.384-4.65 13.356 2.404 4.972 8.385 7.054 13.355 4.65 16.966-8.203 35.197-12.362 54.188-12.362 19.587 0 38.997 4.67 56.444 13.525.547 3.839 1.288 7.655 2.245 11.43-4.866 8.422-9.732 16.845-14.605 25.286-3.226 5.604-3.196 12.278.077 17.853 3.195 5.442 9.051 8.797 15.326 8.796h.151l29.03-.006c9.658 9.4 20.96 16.905 33.322 22.199 1.761 8.402 2.661 16.981 2.661 25.57 0 25.284-7.574 48.828-20.561 68.498h-10.091v-10c0-15.514-11.838-28.316-26.956-29.846 5.709-11.441 7.076-24.595 3.418-37.151-.999-3.43-3.753-6.067-7.223-6.917-9.708-2.376-19.785-2.314-29.254-.069-1.366-17.981-12.328-34.35-29.3-43.35-2.93-1.554-6.438-1.554-9.37 0-16.974 9-27.936 25.369-29.302 43.352-9.47-2.246-19.547-2.307-29.253.067-3.471.85-6.225 3.486-7.224 6.917-3.658 12.556-2.291 25.71 3.418 37.151-15.118 1.531-26.956 14.332-26.956 29.846v10h-10.09c-12.988-19.67-20.561-43.214-20.561-68.498 0-18.991 4.158-37.221 12.359-54.183 2.404-4.972.322-10.952-4.65-13.356-4.97-2.404-10.952-.323-13.355 4.65-9.524 19.699-14.354 40.858-14.354 62.889 0 79.761 64.891 144.652 144.651 144.652s144.651-64.891 144.651-144.652c0-6.312-.429-12.618-1.252-18.873 6.765 1.382 13.529 2.099 20.228 2.203.675 6.005 1.024 12.051 1.024 18.058.004 47.849-25.491 109.463-69.943 169.04zm-146.703-101.932h-22.001v-10c0-5.514 4.486-10 10-10h13.91c10.299 7.464 23.034 11.484 35.986 11.484 4.708 0 9.447-.537 14.103-1.623 4.658 1.087 9.393 1.623 14.103 1.623 12.951 0 25.688-4.021 35.986-11.484h13.91c5.514 0 10 4.486 10 10v20c0 5.523 4.478 10 10 10h3.695c-22.538 22.336-53.531 36.154-87.694 36.154s-65.156-13.818-87.694-36.154h35.695c5.522 0 10-4.477 10-10s-4.476-10-9.999-10zm37.865-80.173c0-10.321 5.303-20.101 14.134-26.56 8.83 6.458 14.133 16.239 14.133 26.56 0 1.724-.161 3.437-.446 5.13-2.178 1.496-4.257 3.137-6.21 4.928-2.82 2.585-5.317 5.403-7.477 8.4-2.16-2.997-4.656-5.815-7.476-8.4-1.954-1.791-4.033-3.432-6.211-4.928-.286-1.692-.447-3.406-.447-5.13zm55.741 41.345c-8.255 7.566-19.866 11.225-31.398 10.141-.919-9.802 2.901-19.46 10.782-26.685 8.255-7.566 19.868-11.222 31.398-10.141.919 9.802-2.902 19.46-10.782 26.685zm-62.598-16.544c7.882 7.226 11.702 16.883 10.783 26.685-11.529 1.085-23.145-2.575-31.398-10.142-7.882-7.224-11.702-16.882-10.783-26.684 11.531-1.088 23.143 2.574 31.398 10.141zm273.273-116.487c-10.763 40.165-47.218 66.719-86.954 66.716-7.688 0-15.503-.995-23.273-3.077-16.063-4.304-30.57-12.924-41.955-24.93-1.888-1.991-4.512-3.119-7.256-3.119-.001 0-.002 0-.003 0l-29.502.006c4.603-7.97 9.205-15.935 13.807-23.899l.951-1.647c1.374-2.377 1.71-5.215.929-7.847-4.703-15.855-4.914-32.727-.61-48.792 12.844-47.935 62.284-76.485 110.228-63.64 47.933 12.846 76.482 62.294 63.638 110.229z"/><path d="m312.361 86.372c-3.905 3.905-3.905 10.237 0 14.143 3.906 3.905 10.236 3.905 14.143 0 13.221-13.222 30.8-20.503 49.497-20.503s36.276 7.281 49.497 20.503c1.953 1.953 4.512 2.929 7.071 2.929s5.118-.976 7.071-2.929c3.905-3.905 3.905-10.237 0-14.143-16.999-16.999-39.6-26.36-63.64-26.36s-46.64 9.362-63.639 26.36z"/><path d="m376.001 100.012c-13.356 0-25.912 5.201-35.355 14.645-3.905 3.905-3.905 10.237 0 14.142 3.906 3.905 10.238 3.905 14.143 0 5.666-5.666 13.199-8.787 21.213-8.787 8.013 0 15.547 3.121 21.213 8.787 1.953 1.953 4.512 2.929 7.071 2.929s5.119-.977 7.071-2.929c3.905-3.905 3.905-10.237 0-14.142-9.445-9.444-22.002-14.645-35.356-14.645z"/><path d="m375.997 140.012c-5.522 0-10 4.477-10 10s4.478 10 10 10h.007c5.522 0 9.997-4.477 9.997-10s-4.482-10-10.004-10z"/><path d="m115.439 151.454c5.522 0 10-4.477 10-10s-4.478-10-10-10h-.008c-5.522 0-9.996 4.477-9.996 10s4.482 10 10.004 10z"/></g></g></svg>